<?xml version="1.0" standalone="no"?>
<svg version="1.0" xmlns="http://www.w3.org/2000/svg"
 width="1128pt" height="1280pt" viewBox="0 0 1128 1280"
 preserveAspectRatio="xMidYMid meet">
<g transform="translate(0,1280) scale(0.1,-0.1)" fill="#024D96" stroke="none">
<path d="M5535 12794 c-71 -12 -195 -56 -260 -94 -168 -99 -277 -234 -346
-430 -22 -61 -23 -83 -27 -382 -2 -175 -5 -318 -8 -318 -2 0 -25 16 -51 37
-59 44 -166 95 -253 119 -87 24 -271 24 -360 1 -201 -53 -384 -198 -475 -377
-62 -124 -80 -199 -80 -345 1 -143 15 -215 65 -320 16 -33 283 -429 594 -880
l565 -820 1 -647 c0 -357 -2 -648 -4 -648 -10 0 -1103 634 -1118 649 -9 9
-193 387 -408 840 -461 970 -455 958 -513 1038 -89 121 -250 227 -407 269 -89
24 -282 25 -368 1 -264 -72 -461 -268 -532 -530 -16 -58 -22 -107 -22 -192 0
-63 3 -119 7 -125 3 -5 4 -10 1 -10 -2 0 -111 61 -241 136 -247 143 -322 176
-445 195 -325 50 -669 -142 -792 -443 -118 -291 -49 -612 178 -827 68 -64 118
-98 317 -211 130 -74 236 -137 237 -140 0 -3 -21 -13 -47 -22 -67 -24 -163
-90 -231 -158 -119 -119 -192 -271 -213 -444 -33 -261 92 -530 317 -686 96
-66 203 -109 318 -126 100 -15 4 -21 1407 91 l686 55 561 -322 c309 -178 561
-325 561 -328 0 -3 -252 -150 -561 -328 l-561 -322 -686 55 c-1403 112 -1307
106 -1407 91 -326 -49 -575 -294 -630 -621 -48 -284 83 -572 333 -736 42 -27
93 -54 114 -61 22 -6 39 -14 39 -17 -1 -3 -107 -67 -238 -141 -201 -115 -249
-146 -317 -212 -384 -367 -280 -991 202 -1209 78 -36 223 -69 303 -69 166 0
265 36 555 204 129 75 238 136 241 136 3 0 2 -5 -1 -10 -4 -6 -7 -62 -7 -125
0 -180 51 -329 159 -466 92 -118 241 -215 393 -256 89 -24 270 -24 365 1 161
41 320 146 412 269 51 69 114 196 587 1192 l328 690 555 320 c305 176 559 322
564 323 5 2 9 -267 9 -645 l-1 -648 -565 -820 c-311 -451 -578 -847 -594 -880
-50 -105 -64 -177 -65 -320 0 -146 18 -221 80 -345 91 -179 274 -324 475 -377
89 -23 273 -23 360 1 87 24 194 75 253 119 26 21 49 37 51 37 3 0 6 -143 8
-318 4 -299 5 -321 27 -382 89 -251 261 -421 501 -497 74 -24 102 -27 210 -27
102 0 139 4 200 23 247 77 422 248 511 501 22 61 23 83 27 382 2 175 5 318 8
318 2 0 25 -16 51 -37 57 -43 163 -93 253 -119 87 -24 269 -25 360 -1 202 53
382 196 475 377 62 123 80 199 80 345 0 144 -15 215 -65 319 -16 33 -283 430
-594 881 l-565 820 -1 648 c0 374 4 647 9 645 5 -1 259 -147 564 -323 l555
-320 328 -690 c489 -1030 544 -1141 600 -1210 169 -205 454 -311 710 -262 382
73 642 418 603 800 -3 34 -5 63 -4 65 1 1 109 -59 239 -134 248 -143 323 -176
446 -195 325 -50 669 142 792 443 118 291 49 612 -178 827 -68 64 -118 98
-317 211 -130 74 -236 138 -237 141 0 3 17 11 39 17 55 17 178 100 240 163
158 159 240 393 211 606 -45 341 -296 597 -634 649 -100 15 -2 21 -1407 -91
l-686 -55 -561 322 c-309 178 -561 325 -561 328 0 3 252 150 561 328 l561 322
686 -55 c1405 -112 1307 -106 1407 -91 192 29 367 130 478 275 92 120 137 228
156 374 29 213 -53 447 -211 606 -62 63 -185 146 -240 163 -22 6 -39 14 -39
17 1 3 108 67 238 141 219 125 244 142 328 225 78 77 98 104 138 185 55 114
75 185 83 305 16 245 -99 486 -304 631 -208 149 -482 183 -713 90 -31 -13
-159 -82 -284 -155 -126 -72 -230 -130 -231 -129 -1 2 1 31 4 66 34 328 -160
643 -468 761 -298 114 -643 23 -844 -224 -62 -76 -68 -89 -532 -1065 -212
-448 -394 -822 -403 -831 -15 -15 -1108 -649 -1118 -649 -2 0 -4 291 -4 648
l1 647 565 820 c311 451 578 848 594 881 50 104 65 175 65 319 0 146 -18 222
-80 345 -93 181 -273 324 -475 377 -91 24 -273 23 -360 -1 -90 -26 -196 -76
-253 -119 -26 -21 -49 -37 -51 -37 -3 0 -6 143 -8 318 -4 299 -5 321 -27 382
-112 317 -371 516 -686 525 -55 2 -113 1 -130 -1z"/>
</g>
</svg>
